<svg xmlns="http://www.w3.org/2000/svg" viewBox="0 0 20 20" width="20" height="20">
	<style>
		tspan { white-space:pre }
		.shp0 { fill: #333333 } 
	</style>
	<path id="cross" class="shp0" d="M18.57,17.45l-16.03,-16.03c-0.58,-0.58 -1.51,-0.58 -2.09,0c-0.58,0.58 -0.58,1.51 0,2.09l16.03,16.03c0.58,0.58 1.51,0.58 2.09,0c0.58,-0.58 0.58,-1.51 0,-2.09zM16.48,1.43l-16.03,16.03c-0.58,0.58 -0.58,1.51 0,2.09c0.58,0.58 1.51,0.58 2.09,0l16.03,-16.03c0.58,-0.58 0.58,-1.51 0,-2.09c-0.58,-0.58 -1.51,-0.58 -2.09,0z" />
</svg>